<?xml version="1.0" standalone="no"?>
<!DOCTYPE svg PUBLIC "-//W3C//DTD SVG 20010904//EN"
 "http://www.w3.org/TR/2001/REC-SVG-20010904/DTD/svg10.dtd">
<svg version="1.0" xmlns="http://www.w3.org/2000/svg"
 width="567.000000pt" height="567.000000pt" viewBox="0 0 567.000000 567.000000"
 preserveAspectRatio="xMidYMid meet">
<metadata>
Created by potrace 1.11, written by Peter Selinger 2001-2013
</metadata>
<g transform="translate(0.000000,567.000000) scale(0.100000,-0.100000)"
fill="#000000" stroke="none">
<path d="M672 3797 c-271 -777 -492 -1416 -492 -1420 0 -4 29 -7 65 -7 47 0
78 -6 106 -21 125 -63 349 -81 502 -40 44 11 90 29 104 39 17 12 42 62 82 163
59 146 114 250 148 282 34 30 125 39 378 35 206 -3 245 -6 273 -21 50 -27 109
-130 182 -319 42 -106 58 -131 101 -154 25 -13 134 -40 250 -64 31 -6 64 -19
73 -29 9 -10 27 -50 41 -89 l25 -72 0 -565 0 -565 22 0 c11 0 44 -11 72 -24
175 -81 427 -81 602 0 28 13 61 24 72 24 l22 0 0 308 c0 327 5 373 52 450 25
40 94 82 137 82 96 0 176 -95 580 -698 80 -119 111 -157 144 -176 125 -72 441
-67 616 10 46 21 69 24 167 24 63 0 114 3 114 6 0 3 -235 340 -522 748 -287
407 -524 752 -526 766 -4 30 4 41 263 360 254 312 338 424 382 512 22 42 98
148 179 248 77 96 144 181 148 188 6 9 -85 12 -441 12 l-448 -1 -413 -519
c-227 -286 -417 -520 -423 -520 -5 0 -9 204 -9 520 l0 520 -395 0 -395 0 0
-160 c0 -89 -4 -160 -9 -160 -5 0 -18 26 -29 58 -18 51 -533 1536 -569 1640
l-15 42 -362 0 -363 0 -491 -1413z m901 151 c18 -29 45 -78 59 -110 39 -82
118 -323 118 -358 l0 -30 -230 0 -230 0 0 24 c0 31 78 261 119 351 48 106 93
175 113 175 10 0 31 -22 51 -52z"/>
</g>
</svg>
